# xmcd
#
# Track frame offsets: 
#        182
#        12357
#        25682
#        36545
#        49520
#        63832
#        78107
#        91932
#        104145
#        116320
#        128290
#        138607
#        151920
#        163980
#        176867
#        190362
#        202765
#        214545
#        227297
#        249130
#        259617
#        280917
#        291545
#        305792
#
# Disc length: 4326 seconds
#
# Revision: 2
# Processed by: cddbd v1.5.2PL0 Copyright (c) Steve Scherf et al.
# Submitted via: ExactAudioCopy v1.0b3
#
DISCID=4710e418
DTITLE=Little Walter - The Electric Harmonica Genius
DYEAR=1990
DGENRE=Blues
TTITLE0=Juke
TTITLE1=Can't Hold Out Much Longer
TTITLE2=Blue Midnight
TTITLE3=Mean Old World
TTITLE4=Sad Hours
TTITLE5=Quarter To Twelve
TTITLE6=Blues With A Feeling
TTITLE7=Last Night
TTITLE8=Mellow Down Easy
TTITLE9=My Babe
TTITLE10=Hate To See You
TTITLE11=Going Down Slow
TTITLE12=It's Too Late, Brother
TTITLE13=Everybody Needs Somebody
TTITLE14=Confessin' The Blues
TTITLE15=Key To The Highway
TTITLE16=Walkin' On
TTITLE17=Everything's Going To Be Alright
TTITLE18=Blue And Lonesome
TTITLE19=I Don't Play
TTITLE20=Peppers Thing
TTITLE21=Off The Wall
TTITLE22=You're So Fine
TTITLE23=Rocker
EXTD=
EXTT0=
EXTT1=
EXTT2=
EXTT3=
EXTT4=
EXTT5=
EXTT6=
EXTT7=
EXTT8=
EXTT9=
EXTT10=
EXTT11=
EXTT12=
EXTT13=
EXTT14=
EXTT15=
EXTT16=
EXTT17=
EXTT18=
EXTT19=
EXTT20=
EXTT21=
EXTT22=
EXTT23=
PLAYORDER=
